<?xml version="1.0" encoding="utf-8"?>
<!-- Generator: Adobe Illustrator 19.1.0, SVG Export Plug-In . SVG Version: 6.00 Build 0)  -->
<svg version="1.1" id="Layer_1" xmlns="http://www.w3.org/2000/svg" xmlns:xlink="http://www.w3.org/1999/xlink" x="0px" y="0px"
	 viewBox="0 0 368.5 127.1" style="enable-background:new 0 0 368.5 127.1;" xml:space="preserve">
<style type="text/css">
	.st0{fill:#2B3442;}
	.st1{fill:none;stroke:#FFFFFF;stroke-width:4;stroke-miterlimit:10;}
	.st2{fill:#FFFFFF;}
	.st3{fill:#518DCA;}
	.st4{fill:none;stroke:#FFFFFF;stroke-miterlimit:10;}
</style>
<g>
	<g>
		<path class="st2" d="M120.2,102c-6.8,0-12.6-0.6-17.2-1.7c-4.6-1.1-8.4-3-11.3-5.6c-2.9-2.6-4.9-6-6.2-10.2
			c-1.3-4.2-1.9-9.5-1.9-15.6V58.3c0-5.9,0.6-10.9,1.9-15.2c1.3-4.2,3.5-7.7,6.5-10.4c3-2.7,7-4.7,11.9-5.9c4.9-1.3,11-1.9,18.3-1.9
			c2.4,0,4.7,0,6.6,0c2,0,3.9,0,5.8,0c1.9,0,3.9,0,5.9,0.1c2,0,4.3,0.1,6.9,0.2l-3.1,17.7c-3.6-0.1-6.7-0.1-9.2-0.2
			c-2.6,0-4.7-0.1-6.5-0.1c-1.8,0-3.3,0-4.5,0c-1.2,0-2.3,0-3.1,0c-3.2,0-5.8,0.2-7.8,0.6c-2,0.4-3.6,1.2-4.7,2.3
			c-1.2,1.2-2,2.8-2.4,4.8c-0.5,2-0.7,4.7-0.7,7.9v10.4c0,3.2,0.2,5.9,0.7,7.9c0.5,2,1.2,3.6,2.3,4.8c1.1,1.2,2.5,1.9,4.4,2.3
			c1.8,0.4,4.2,0.6,7,0.6h9.6V73.2h-11l3-15.9h28.3v32.6c0,4.4-1,7.5-3,9.3c-2,1.8-5.2,2.8-9.8,2.8H120.2z"/>
		<path class="st2" d="M157.7,25.2h33.6c6.8,0,12.3,0.7,16.8,2c4.4,1.4,7.9,3.4,10.6,6.2c2.6,2.8,4.5,6.3,5.5,10.5
			c1,4.2,1.6,9.1,1.6,14.8v9.6c0,5.4-0.5,10.2-1.6,14.4c-1.1,4.2-2.9,7.7-5.5,10.6c-2.6,2.8-6.1,5-10.4,6.5
			c-4.4,1.5-9.8,2.2-16.3,2.2h-34.2V25.2z M178.3,84.3h10.9c2.8,0,5.1-0.2,7-0.7c1.9-0.5,3.4-1.3,4.6-2.5c1.2-1.2,2-2.8,2.5-5
			c0.5-2.1,0.8-4.8,0.8-8v-9.2c0-3.2-0.3-5.9-0.8-8c-0.5-2.1-1.3-3.7-2.5-4.9c-1.2-1.2-2.7-2-4.6-2.5c-1.9-0.5-4.2-0.7-7-0.7h-10.9
			V84.3z"/>
	</g>
	<g>
		<rect x="47.5" y="25.2" class="st3" width="13.9" height="76.8"/>
	</g>
	<g>
		<rect x="0" y="25.2" class="st3" width="13.9" height="76.8"/>
	</g>
	<g>
		<rect x="23.8" class="st3" width="13.9" height="127.1"/>
	</g>
	<g>
		<polygon class="st2" points="342.8,59 365.5,25.2 342.7,25.2 332.1,43.1 		"/>
		<path class="st2" d="M313,25.2h-19.5l24.2,36l-20,30.1l-23.2-66.1h-25.2L222.4,102h21l5.2-16.8h25.6l5.3,16.8h30.3l27.6-40.8
			L313,25.2z M253.2,69.1l8.1-26l8.1,26H253.2z"/>
		<polygon class="st2" points="342.8,63.4 331.4,80.2 344.5,102 368.5,102 		"/>
	</g>
</g>
</svg>
